/* XPM */
static char *ctoxmp1722148088[] = {
/* columns rows colors chars-per-pixel */
"50 50 61 1 ",
"  c None",
". c #7F0000",
"X c #7E0101",
"o c #7F0101",
"O c #7C0303",
"+ c #7E0404",
"@ c #7F0606",
"# c #7F0D0D",
"$ c #800000",
"% c #800101",
"& c #800606",
"* c #850707",
"= c #880000",
"- c #8F0000",
"; c #800A0A",
": c #800D0D",
"> c #841515",
", c #B40000",
"< c #B80000",
"1 c #A91212",
"2 c #D20101",
"3 c #DB0000",
"4 c #E30000",
"5 c #E80000",
"6 c #F10000",
"7 c red",
"8 c #FF0202",
"9 c #FF0303",
"0 c #FF0404",
"q c #FF0505",
"w c #FF0606",
"e c #FF0707",
"r c #FF0909",
"t c #FF0A0A",
"y c #FF0B0B",
"u c #FF0C0C",
"i c #FE1313",
"p c #FF1918",
"a c #FF2020",
"s c #FE2828",
"d c #FE3F3F",
"f c #FE4847",
"g c #FE4A4A",
"h c #FE5252",
"j c #FE5C5C",
"k c #FE5D5D",
"l c #FE5E5E",
"z c #FE6D6C",
"x c #FE7777",
"c c #FE7D7D",
"v c #FE9090",
"b c #FE9696",
"n c #FEA7A7",
"m c #FEB7B7",
"M c #FEC8C8",
"N c #FED4D4",
"B c #FED7D7",
"V c #FEE3E3",
"C c #FEF1F1",
"Z c #FFFBFB",
"A c white",
/* pixels */
"                                                  ",
"                                                  ",
"                                                  ",
"                                                  ",
"                                                  ",
"                                                  ",
"                                                  ",
"                                                  ",
"                                    &oooo&        ",
"                                    o$$$$+        ",
"                                    o$$$$+        ",
"                              #ooooooo$$$;        ",
"                              :$$$$$$$$$$+        ",
"                              +++o$$;++++o        ",
"                         +$$$$:  *$o              ",
"                         $$$$$:  ;$o              ",
"                      +o+O       ;$o              ",
"                      #oo        ;$o              ",
"                      *$o        *$o              ",
"            iiurqqq2oo:       >oo#                ",
"           r77777773$$        :$$                 ",
"           q77777773--1       +&&                 ",
"         qq777777777667qq   o$:                   ",
"         q777777777777777   o$:                   ",
"         7777777777777ahhg  o$*                   ",
"      q777777777777777lZAc75=$,777777             ",
"      7777777777777777lAAc75=$,77777q             ",
"      77777777777777uqlnnh75=$,777777qq           ",
"      77rhzlu7777777   q7775=$,7777777q           ",
"      77uMAVa777777q   77775-$<7777777q           ",
"      77uMAVp7777777   q777744677777777           ",
"      77qxbnbvh7777q   q777777777777777           ",
"      77777gAAb7777q   q777777777777777           ",
"      777q7gZAb77777   777rr07777777770           ",
"         77azzd77777   q7gmmh7777777777           ",
"         r777777777q   77zAAz777777777q           ",
"         q7q7qq7qq7q   77zAZxppq7777777           ",
"                       77aghmBma777777q           ",
"                       rq77qMAVs77777rq           ",
"                         q7umCNp77770             ",
"                         q77assr77770             ",
"                         q77777qrrrur             ",
"                                                  ",
"                                                  ",
"                                                  ",
"                                                  ",
"                                                  ",
"                                                  ",
"                                                  ",
"                                                  "
};
