/* XPM */
static char *door1722154266_removebg_preview1722154322[] = {
/* columns rows colors chars-per-pixel */
"50 50 205 2 ",
"   c #000000",
".  c #0B0101",
"X  c #060807",
"o  c #04030A",
"O  c #05090A",
"+  c #0C0C0B",
"@  c #120200",
"#  c #1B0500",
"$  c #140A00",
"%  c #1B0B00",
"&  c #120E0D",
"*  c #1A1506",
"=  c #000411",
"-  c #0B0C14",
";  c #100F15",
":  c #0B101A",
">  c #121312",
",  c #191716",
"<  c #1D1C16",
"1  c #1B1B1B",
"2  c #260200",
"3  c #230D00",
"4  c #280F00",
"5  c #300800",
"6  c #241401",
"7  c #2C1500",
"8  c #211B00",
"9  c #2D1B00",
"0  c #331600",
"q  c #3B1500",
"w  c #331C00",
"e  c #391C00",
"r  c #332100",
"t  c #392301",
"y  c #3C2A00",
"u  c #3B260A",
"i  c #392908",
"p  c #3F3301",
"a  c #272413",
"s  c #1C1F21",
"d  c #242424",
"f  c #28292A",
"g  c #2D2D2B",
"h  c #322D27",
"j  c #2F302F",
"k  c #36332E",
"l  c #322B32",
"z  c #2C3339",
"x  c #333333",
"c  c #363535",
"v  c #32393C",
"b  c #461F00",
"n  c #412300",
"m  c #422C00",
"M  c #4B2901",
"N  c #522700",
"B  c #582F00",
"V  c #433100",
"C  c #4A3401",
"Z  c #4B3904",
"A  c #4B350B",
"S  c #49370D",
"D  c #573A06",
"F  c #4B3913",
"G  c #543A13",
"H  c #51391B",
"J  c #623900",
"K  c #603E11",
"L  c #47372B",
"P  c #503520",
"I  c #463C33",
"U  c #3E423D",
"Y  c #58400D",
"T  c #5B4315",
"R  c #5B411C",
"E  c #704606",
"W  c #765303",
"Q  c #6D4D18",
"!  c #714D19",
"~  c #7A5715",
"^  c #7E6017",
"/  c #7E611D",
"(  c #614E26",
")  c #7C632A",
"_  c #7B6637",
"`  c #3D3E42",
"'  c #3F4041",
"]  c #434344",
"[  c #48464E",
"{  c #4A4A4A",
"}  c #524E4D",
"|  c #474B51",
" . c #4C5254",
".. c #535353",
"X. c #5A575A",
"o. c #63594D",
"O. c #796540",
"+. c #7C6F5C",
"@. c #646564",
"#. c #696869",
"$. c #6C6C6C",
"%. c #746969",
"&. c #73726F",
"*. c #706D74",
"=. c #757575",
"-. c #7B7B77",
";. c #7C7C7C",
":. c #845E02",
">. c #8B5D04",
",. c #865808",
"<. c #895C0C",
"1. c #945D0A",
"2. c #855B17",
"3. c #8D5F11",
"4. c #8E5E1B",
"5. c #876001",
"6. c #8B6203",
"7. c #8A620D",
"8. c #92640B",
"9. c #95640B",
"0. c #966A0E",
"q. c #9B6C0D",
"w. c #95720C",
"e. c #8B6213",
"r. c #8D6A16",
"t. c #82611B",
"y. c #8A651B",
"u. c #8F6A1B",
"i. c #9B6714",
"p. c #916812",
"a. c #9C6D13",
"s. c #92651C",
"d. c #926A1B",
"f. c #977313",
"g. c #9E7214",
"h. c #9D7A16",
"j. c #9D721A",
"k. c #A06E0F",
"l. c #A27215",
"z. c #A47815",
"x. c #A57219",
"c. c #845C29",
"v. c #846322",
"b. c #8A6523",
"n. c #8C6B25",
"m. c #82672C",
"M. c #8E652B",
"N. c #87692B",
"B. c #8C6C2A",
"V. c #916524",
"C. c #966E26",
"Z. c #9A6C23",
"A. c #916229",
"S. c #916D2D",
"D. c #967227",
"F. c #9E7C2D",
"G. c #8E6632",
"H. c #896E33",
"J. c #837038",
"K. c #9A7937",
"L. c #A57321",
"P. c #A37A24",
"I. c #A0762E",
"U. c #A07C30",
"Y. c #916C40",
"T. c #8B7641",
"R. c #987644",
"E. c #A48022",
"W. c #D8B637",
"Q. c #D6B33B",
"!. c #DCBA3B",
"~. c #E0BB3C",
"^. c #DEC03C",
"/. c #88837D",
"(. c #DAB640",
"). c #DDBA43",
"_. c #DCB94A",
"`. c #E4BD44",
"'. c #CFA86D",
"]. c #ECCA4E",
"[. c #EDCC5C",
"{. c #F8CF59",
"}. c #F7D35D",
"|. c #F8D558",
" X c #FBD55F",
".X c #F5D561",
"XX c #FAD562",
"oX c #F6D56E",
"OX c #E6CA73",
"+X c #817F84",
"@X c gray52",
"#X c #888483",
"$X c #928C8C",
"%X c #9A958F",
"&X c #939393",
"*X c #97969A",
"=X c #9C9A9B",
"-X c #A19DA3",
";X c #AAA7A7",
":X c #A2A4A8",
">X c #BBBBBB",
",X c #F4D789",
"<X c #FEE487",
"1X c #C8C8C8",
"2X c #E4E4E4",
/* pixels */
"                                                                                                    ",
"                                                                                                    ",
"                                                                                                    ",
"                                                                                                    ",
"                                                                                                    ",
"                                                                                                    ",
"                                                                                                    ",
"                                                                                                    ",
"                                                                                                    ",
"                                          + o + + X X                                               ",
"                                  > O O o = [ ` ..] d g   X                                         ",
"                                  v v v *.- #.*X*X&X#.U <                                           ",
"                                X  .z :X-Xs & h * * a * < U j f .                                   ",
"                          , { @.;.s  .1XL % . $ O.( 8   * o.@Xx ,                                   ",
"                          ]   , , . v /.% 9 $ S ,XOXV . 6 # %.l X + ,                               ",
"                          @.g 1X;Xc . % K.N.8 S oX_.y 9 H.R.3 @ ] /.] -                             ",
"                        ]     & . . y H.j.u.6 Z [._.y w b.Z.R.7 L #XU :                             ",
"                        j f -.} %.6 t U.6.e.w C .X).m e 3.i.I.! H I z = +                           ",
"                        c ..2X%X+.S B F.0.d.w C }.!.m e s.a.d.S.C . ' v   X                         ",
"                      > d ] ;X&.# Y n.d.a.s.t m |.!.m e s.x.0.d.D i =Xs + X                         ",
"                    d > X   X $ _ ~ 2.Z.L.2.0 C XX`.n 0 4.x.l.>.t._   U .                           ",
"                    d   @.&X{ . m.u.3.L.i.s.0 C XX_.n e 4.i.z.5.d.) . &                             ",
"                    d X =X  ;.. N.p.>.l.k.s.w C }.(.m w s.a.l.5.7.v.$ k f                           ",
"                    x   $.@X{ $ B.6.>.x.k.2.e m  X).V 7 d.g.q.5.:.b.. -.    X                       ",
"                    c +       . y.>.6.g.q.u.9 C |.!.y 9 y.g.j.:.8.b.. $X` + o                       ",
"                    c X =.;XX.. b.a.>.i.P.y.w m !.^.p r v.P.p.p.8.v.3 . o o ;                       ",
"                    { X &X+ =.$ b.<.s.Z.n ~ t y ^.W.y i ! M C.,.7.v.. X.*.l o                       ",
"                    X.X ..=.{ . M.Z.W J B D % C ].W.V # K M E ~ 3.S.@ *X  ] o                       ",
"                    $.X + X X @ c.4.N q '.t # A XXQ.V $ b '.5 B 7.B.. +X:X]   s                     ",
"                    $.o #X>X@.. G.4.y.b.2 Q 4 A XX`.m 9 Q 2 M.2.r.N.$ o     > j                     ",
"                    #.X &X1X=.$ M.<.7.r.W ) u M XX~.t t ^ W V.y.7./   $.-.U   j                     ",
"                    c   { { x . A.<.:.h.E.n.0 D {.~.V 9 r.g.d.<.7.n.. =X  @.  x                     ",
"                    > X > 1 > @ A.9.6.w.q.e.t V XX).m 0 p.l.j.<.8.n.$ %.` | + +                     ",
"                        &X>X=.@ A.1.6.z.g.s.7 V .X!.C e 8.q.a.>.5.t.# o o o                         ",
"                        X.  x . M.<.5.f.9.d.4 Z [.(.m e p.q.j.7.e.m.@                               ",
"                      o         Y.V.B.F.D.S.0 S <XOXy w S.D.U.v.t.T.                                ",
"                              . P G G Y T H % 9 T.J.6 3 G G R A T F .                               ",
"                                                                                                    ",
"                                                                                                    ",
"                                                                                                    ",
"                                                                                                    ",
"                                                                                                    ",
"                                                                                                    ",
"                                                                                                    ",
"                                                                                                    ",
"                                                                                                    ",
"                                                                                                    ",
"                                                                                                    ",
"                                                                                                    ",
"                                                                                                    "
};
