/* XPM */
static char *player1722148376[] = {
/* columns rows colors chars-per-pixel */
"50 50 19 1 ",
"  c black",
". c #F2F201",
"X c #090902",
"o c #2E2E03",
"O c #565606",
"+ c #8F8F07",
"@ c #191902",
"# c yellow",
"$ c #FCFC01",
"% c #818101",
"& c #636305",
"* c #C0C004",
"= c #D0D002",
"- c #474705",
"; c #DBDB01",
": c #ACAC05",
"> c #767604",
", c #A0A005",
"< c #E3E302",
/* pixels */
"                                                  ",
"                                                  ",
"                                                  ",
"                                                  ",
"                                                  ",
"                                                  ",
"                                                  ",
"                                                  ",
"                                                  ",
"                                                  ",
"                  @+++++++++++++++O               ",
"                  -.##############,               ",
"                o%,$##############=+&             ",
"                &###################:             ",
"              Xo%######.+>=#########=&&           ",
"              o;.#####$.o ,############           ",
"            X@-.#######.>O*#######<****           ",
"            -<<$########$$$#######,XXXX           ",
"            O#################.;;;%               ",
"            O$################:@@@X               ",
"            O$############=***>                   ",
"            O$############&XXXX                   ",
"            O$##########<=O                       ",
"            O$#########$&XX                       ",
"            O$#########$>o@                       ",
"            O$##########..O                       ",
"            O$############%ooo@                   ",
"            O$############.<..+                   ",
"            O$################:@@@@               ",
"            O$################.;;<%               ",
"            O$$###################,@@@@           ",
"            @O>.##################.====           ",
"              o.##################$##$$           ",
"              @&:###################*--           ",
"                &###################:             ",
"                o&+$##############*&-             ",
"                  -.##############,               ",
"                  @%%%%%%%%%%%%%%%O               ",
"                                                  ",
"                                                  ",
"                                                  ",
"                                                  ",
"                                                  ",
"                                                  ",
"                                                  ",
"                                                  ",
"                                                  ",
"                                                  ",
"                                                  ",
"                                                  "
};
