/* XPM */
static char *gregory_ligman_brickwall__1_1722153186[] = {
/* columns rows colors chars-per-pixel */
"50 50 222 2 ",
"   c #1C1424",
".  c #1B1B27",
"X  c #1D1C2B",
"o  c #1F172D",
"O  c #1D1B31",
"+  c #221425",
"@  c #23142C",
"#  c #251A2B",
"$  c #2B1B2C",
"%  c #30172D",
"&  c #271D31",
"*  c #1E212A",
"=  c #1A2730",
"-  c #25212F",
";  c #2C202A",
":  c #33212F",
">  c #242333",
",  c #2B2232",
"<  c #2C2B35",
"1  c #2C273A",
"2  c #2C2B3C",
"3  c #22223A",
"4  c #322332",
"5  c #322738",
"6  c #332C3A",
"7  c #3B2D3D",
"8  c #372835",
"9  c #2E353D",
"0  c #35323C",
"q  c #3A313C",
"w  c #3E393F",
"e  c #3D3236",
"r  c #4B3B3D",
"t  c #422C39",
"y  c #3A2B42",
"u  c #333542",
"i  c #3D3544",
"p  c #3E3B43",
"a  c #3C344A",
"s  c #3D3B4B",
"d  c #353C49",
"f  c #443B45",
"g  c #4B3B44",
"h  c #453649",
"j  c #453C4B",
"k  c #4B3C4A",
"l  c #443544",
"z  c #513C4B",
"x  c #4C3C53",
"c  c #463F51",
"v  c #503F51",
"b  c #623A54",
"n  c #3D444B",
"m  c #3F4D4D",
"M  c #3B4446",
"N  c #3C4B52",
"B  c #3C5255",
"V  c #454244",
"C  c #4B4445",
"Z  c #44434C",
"A  c #4B444C",
"S  c #444A4D",
"D  c #4B4B4D",
"F  c #4A4C47",
"G  c #53434D",
"H  c #59484D",
"J  c #45524E",
"K  c #444452",
"L  c #4B4552",
"P  c #454C53",
"I  c #4C4B53",
"U  c #4A4058",
"Y  c #4D4B5B",
"T  c #534553",
"R  c #5B4653",
"E  c #544B54",
"W  c #5B4C55",
"Q  c #514759",
"!  c #544C5A",
"~  c #5A4D5C",
"^  c #5C4758",
"/  c #445254",
"(  c #4B5253",
")  c #4D525B",
"_  c #49595A",
"`  c #545255",
"'  c #5C5255",
"]  c #54535B",
"[  c #5B535C",
"{  c #545C5C",
"}  c #5B5A5C",
"|  c #595856",
" . c #624C5C",
".. c #624552",
"X. c #63525D",
"o. c #625C5B",
"O. c #67545C",
"+. c #62645F",
"@. c #5B4E62",
"#. c #564D64",
"$. c #545362",
"%. c #5C5362",
"&. c #5C5B64",
"*. c #5D546A",
"=. c #5E5B6B",
"-. c #575B64",
";. c #4D5467",
":. c #674F62",
">. c #704F64",
",. c #635564",
"<. c #6B5463",
"1. c #635B64",
"2. c #6B5D65",
"3. c #63566A",
"4. c #635C6B",
"5. c #6D5C6B",
"6. c #6F566B",
"7. c #645F71",
"8. c #735C71",
"9. c #70576A",
"0. c #5C6363",
"q. c #5E656B",
"w. c #5E6968",
"e. c #5E6B71",
"r. c #656364",
"t. c #6B6364",
"y. c #636964",
"u. c #6C6A65",
"i. c #65636B",
"p. c #6C646C",
"a. c #646A6C",
"s. c #6D6D6C",
"d. c #72656C",
"f. c #7B666C",
"g. c #736C6D",
"h. c #786E6F",
"j. c #736966",
"k. c #6D726D",
"l. c #6B796F",
"z. c #73736E",
"x. c #79726C",
"c. c #74796D",
"v. c #646272",
"b. c #6C6473",
"n. c #666A71",
"m. c #6D6C74",
"M. c #6C6B79",
"N. c #68677A",
"B. c #736472",
"V. c #736D72",
"C. c #796D74",
"Z. c #746C7B",
"A. c #7B6C7C",
"S. c #766577",
"D. c #6D7373",
"F. c #6E7A74",
"G. c #697677",
"H. c #747473",
"J. c #7A7574",
"K. c #747975",
"L. c #7A7A75",
"P. c #757579",
"I. c #7B747B",
"U. c #757A7A",
"Y. c #7B7A7B",
"T. c #826E79",
"R. c #827576",
"E. c #81757B",
"W. c #827B7D",
"Q. c #6F807A",
"!. c #7C807C",
"~. c #768077",
"^. c #83817C",
"/. c #7B6C83",
"(. c #756D82",
"). c #7C7383",
"_. c #757D81",
"`. c #7C7C82",
"'. c #797489",
"]. c #757C8E",
"[. c #7D7F8C",
"{. c #727581",
"}. c #816F85",
"|. c #837583",
" X c #837C84",
".X c #8A7D85",
"XX c #83758C",
"oX c #837C89",
"OX c #8C7E8B",
"+X c #907E8B",
"@X c #7D8183",
"#X c #7E898E",
"$X c #7A848A",
"%X c #848185",
"&X c #8A8385",
"*X c #858A85",
"=X c #84838B",
"-X c #8B838B",
";X c #838B8E",
":X c #8B898D",
">X c #91848D",
",X c #918887",
"<X c #858491",
"1X c #8C8592",
"2X c #848D92",
"3X c #8D8B93",
"4X c #8C8C99",
"5X c #938690",
"6X c #938B93",
"7X c #978C96",
"8X c #8B9195",
"9X c #879499",
"0X c #8C9399",
"qX c #889599",
"wX c #93959C",
"eX c #979699",
"rX c #8F9AA2",
"tX c #9695A0",
"yX c #949AA4",
"uX c #9B9BA5",
"iX c #9C9AA7",
"pX c #9FA0A5",
/* pixels */
"-X=Xk <XwX+X.X-X>X1Xb.! rX;X.X-X+X-X1XOXj [.iX%X-X-X%Xn ].wX-XOX-X-X>XA.K wX=X=X-X-X>X.X-XP (.wX-X-X",
"H.P.E 8XM.J.L.H.K.Y.p.3.2XP.J.F.K.H.I.E.O.-Xm.K.H.z.&X! -XY.s.L.U.s.Y.V.! 3XH.J.H.Y.s.H.&X! 1XY.H.H.",
"Y.1.E $XU.H.H.U.c.z.E ,.&XK.k.K.L.H.H.y.M -XE.J.U.g.p.L oXL.K.P.K.Y.L.} } ;XH.H.H.F.F.K.h.h I.`.H.H.",
"P.V.T =Xm.%XH.P.x.z.( 5.-XD.c.J.U.P.I.D.L oX).P.H.Y.g.T  XH.L.P.P.z.d.` ] =XP.H.J.H.U.K.C.Q `.K.H.J.",
"x.' e :XY.j.c.k.r.d.j %.1X).P.I.F.j.J.o.w .X.XK.Y.u.o.q [.&Xz.s.P.1.g.G L 6X XI.I.I.I.C.&.u oX-XY.Y.",
"S % , j [ Z 6 u J k % , ~ R ! 0 h f f 0 . k [ f n Y 7 @ k @.Z 2 u I f ; $ ! T H n 6 j V r   k  .s n ",
"=X}.'.'.'.N.y ].;XA.|.).2.d.).f Y 4X[.|.|./.(.i ;.4XZ.XX/.).Z.a G.2XP.E.|.p.B.W.c P <XL.`.).A.J.U U ",
"K.W.L.Y.W.Y.[ 9XY.`.U.k.j.!.;X<.).2XK.Y.`.I.6X..u.Y.L.Y. Xz.,XG 4X_. X XV.m.H.&X8.b.4XU.Y.).`.*XO.<.",
"P.Y.H.H.U.a.E oXP.P.n.`.I.J.H.I /.`.H.H.H.U.H.S a.P.I.D.H.L.p.P %XD.Y.d.I.W.P.J.T Z.).H.U.G.P.c.I 1.",
"K.z.L.H.L.+.` &Xz.H.z.L.W.c.x.g C.W.z.L.z.J.u.F y.L.H.K.z.L.u.S %XU.H.g.P.U.F.J.F d. Xc.c.K.J.x.( w.",
"^.H.Y.J.H.&.] -X!.L.E.H.k.z.J.r E..Xs.c.Y.W.s.V z.&XH.Y.K.J.t.D -X%XP.I.`.H.H.Y.G ,.6Xu.z.z.W.x.M 0.",
"i.] ! A P > # 4.2.%.) L T E x   j b.&.Z K Z 0 + L b.%.I Z K 6 # ,.<.<.] Z z G V + x S.,.I K L i > s ",
"4.4.U , 7.N.*.*.9.5.s 1 v.b.4.4.3.v.b.q.- #.(.*.,.4.v.! # =.N.%.3.5.9.Z > 5.S.r.1.#.*.M.r.1 U Z.*.3.",
":X3XE.[ iX=X=X-X&X5XS.1.pX=X@X-XoX-X%X-X! 6X1X[.-X:X-X.X[ tX=X-XoX=X3X`.$.uX&X[.-X=X;X`.6X! =X8X&X&X",
"k.L.r.D :Xs.H.g.H.J.1.,.*Xs.H.H.H.H.k.J.A OXP.K.H.k.s.g.G :Xs.c.H.D.F.d.W 2XD.H.g.P.H.H.R.G ).J.H.H.",
"H.I.' [ -XH.L.H.J.K.I i..XI.H.H.K.H.I.t.z .XJ.K.H.H.L.2.T oXU.J.c.L.J.X.W OXH.K.L.H.H.J.C.f |.`.P.H.",
"K.P.{ { -XC.c.K.x.H.] 1..XD.L.H.K.c.L.p.I oXU.K.K.H.L.0.] =XP.k.F.K.J.[ ] %Xz.L.F.L.H.J.k.F Y.P.z.H.",
"I.Y.[ W 3XL. XH.L.H.( 3.7X_.K.W.H.K.I.r.C -XJ.g.J.K.Y.o.G 3XY.R.L.H.I.o.%.4X@XH.Y.H.I.E.B.f  XOXJ.J.",
"W G : , B.i.I Z ` T , u n.1.1.] I ! ] q # 3.p.~ G R T 8 & 4.3.] I ! ~ , , M.i.r.%.Z ) ` l # ! N.T T ",
"O.<.! ] :.T . -.s.1.! Y q.,.,.< 0 M.b.@.@.@.4.1. .:.9.! ! 3.! * P D.1.] [ 3.,. .u 9 e.i.] ! ] e.3.%.",
"+X%XH. X-X-XE rX:X=X;X-X.X:X8XX._.wXY.:X&X-X,XW.&X*X:XJ. X&X,XR 9X2X=X=X6X-X.XeX5.i.pX@X-X5X-X-X&X-X",
"H.H.p.g.H.m.! -XH.k.H.C.z.H.Y.W m.@Xk.H.H.H.m.L.z.F.H.u.t.J.C.T =XP.g.J.H.D.V.P.,.p.=Xm.C.J.J.s.H.g.",
"F.Y.L.k.E.r.( -XF.J.P.K.Y.x.H.I '.`.P.H.H.P.`.P.U.I.I.Y.K.^.p.) oXP.W.J.D.Y.L.L.I m.@XK.D.K.L.K._.Y.",
"E.s.H.u.s.G f ;XY.Y.H.g.k.u.1.0 p.6XH.L.g.H.u.y.t.L.k.R.+.+.| 6 =X XJ.J.P.s.t.t.0 1.>XJ.L.H.g.d.t.u.",
"E B L l E < = x ..I B P G k j O y ] ) / B N I A i T _ N h A i 3 j b $.B K P j Z & 7 ^ ] _ N B S Z f ",
" XP.l _.#X-XoX|.W.%X0.L :X[.oXOXoXI.@X`.s P.3X`.oXW.U.k Z.8X X'.XX.XU.m.h 2XoX XXX`.`.@X_.j a.0XoX X",
"H. XR qXU.d.I.I.L. Xg.,.8XG.U.C.I.P.I.&X! :X`.D.V.K.&X! $X!.C._.H.L.Q.Y.X.8XF.E._.Y.H.H.-X[ `. XJ.L.",
"k.s.D .XY.L.H.H.z.J.[ %.:Xk.L.J.P.L.x.g.A |.Y.Y.W.L.y.L oXJ.J.F.U.J.H.r.! `.Y.H.H.H.L.z.V.A E.E.H.H.",
"L.a.A >XC.K.l.K.x.J.! &.=Xg.z.K.z.J.Y.a.S `.I.s.H.J.s.L |.E.K.k.H.J.f.` ` >XH.K.J.z.l.Y.C.g I.U.H.H.",
"J.o.i 1X`.D.I.J.a.p.T %.6X XY.Y.Y.H.L.&.s oX-XW._.C.d.l |.:Xl.I.P.a.d.W Z 7X[.U.I.&Xk.H.p.f I.4XY.Y.",
"L 8   I &.M q p S A % # ] [ T j j f Z i   c ,.Z n n t + c %.S i i B k $ - ~ E G n i g k s . i :.L K ",
"[./.(.B.A.q.2 N.<XZ.A.).4.8.A.d Z -XA.A.}.S.B.i ) #XS.}.N.A.M.1 =.#XZ.|.M.8.B.T.n s oXI./.Z.A.A.j s ",
" X@X XW.Y.5XR rX`. X).E.C.z.6X1.{.0XU.%X.XY.-XO.t.=X@X X X_.-X .8X%XW.W.L.B.I.;Xd.b.wXU.%XW.Y.;X2.X.",
"J.k.l.L.H.t.E -Xk.L.p.L.K.H.H.W C.E.H.z.K.P.K.D r.P.D.K.H.Y.s.A _.U.k.g.J.@XD.W.W p.`.H.H.H.L.L.[ ] ",
"x.L.K.z.L.+.( .XL.H.g.L.c.J.x.G S..XJ.c.k.K.a.F w.J.L.g.L.x.r.( [.H.J.u.Y.K.L.z.G d.&Xa.!.k.J.j.J 0.",
"U.Y.K.H.E.p.P 3XW.I. XP.L.L.H.f Z.-Xj.~.k.Y.E.A G.%XH.L.L.I.m.S OX%XK.&XJ.D.@XR.T 2.-Xs.K.K.W.J.S q.",
"a.' ~ $.T 6 # v.b.1.%.E Z ] T + N Z.[ ( ] L h @ L A.[ ] I ! 7 X [ B.,.r.L I A D # l S.4.S ( I k > s ",
"4.<.G > $.3.@.! ,.3.h < &.4.,.~ ! 3.5.] # L 7.] @.,.4.P * I b.@.! <.<.p > ,.5.0.~ ! %.b.&., i b.Q %.",
"-X6XI.! yX$X1X1X-X&XA.1.eX-X3X=X-X.X-X7X! 4X0X=X>X=X-X1XE wX4X X-X=X6X X! iX=X&X=X4X-X_.7X .oXwX-X-X",
"z.H.B.R 3XD.H.z.z.P.p.[ =Xk.m.H.J.D.V.E.G  XU.g.z.H.H.C.R =XF.H.P.k.H.B. .=XM.K.J.s.F.J.E.G I._.V.H.",
"K.U.| W &XI.P.K.J.Y.` [ -XH.H.H.F.H.W.y.V  X|.U.).P.L.2.x =X_.H.L.H.K.` ` 5XV.P.J.I.P.L.V.C Z.Y.H.H.",
"H. X} ] -XH.H.H.x.H.] o..Xz.U.L.H.J.J.g.A .XH.H.D.x.L.+.( -XC.L.P.J.L.o.! oXY.H.H.D.~.k.k.A `.`.H.H.",
"J.W.~ ' 6XI.L.Y.K.U.] r.7XY.U.L.W.z.P.g.f %X%Xz.!.K.L.+.G 3X Xx.U.J.E.o.` 3XI.I.Y.I.Y.Y.J.f `. XH.H.",
"H ` 8 4 N.m.' I { ! 5 9 D.d.5.-.` ] } f $ -.m.' ^ D X.7 $ 4.N.&.( ` W 6 2 m.t.j.1.] ! [ g + %.V.' ! ",
"' O.L L ,.U . T n.@.x P -. .:.< < q.0.Q v %.%.W ^  .<.k Q ,.x # M i.%.! Y $.,.H 2 2 i.-.! P L &.~ ^ ",
">X.XV.1X1XoXP tX6X<X1X1X1X-X-X*.M.uX#XoX1X1X-X>X-X-X&XI..X>X+X! #XwXoX-X<XoX5X7Xi.v.iX=X:X3X<X:X1X>X",
"C.H.V.g.k.H.E <XB.K.P.V.V.H.Y.[ Z.`.s.H.H.P.H.H.s.F.Y.s.+.g.L.G <XP.H.H.H.P.H.H.o.b.=Xg.J.B.I.V.H.x.",
"U.z.L.k.W.a.I OXz.F.U.L.L.L.K.F P. XJ.k.K.H.H.U.J.P.P.H.F.Y.m.S oXV.H.L.z.K.Y.F.( i.@Xc.K.P.U.F.K.K.",
"W.k.G.f.x.E K %X.XK.F.D.g.j.y.a M.OX@XK.H.K.s.p.D.R.D.F.d.x.} a $X+XP.K.k.H.f.s.f -.>XW.F.z.K.g.g.j.",
"E J ( g V 5 O E W ( ( P F r r @ u ~ ) ( D ( V C p H J / g C 0 @ Z  .` ( ( D g M o 6 %.] ( D / A V p "
};
